<svg width="30" height="48" viewBox="0 0 30 48" fill="none" xmlns="http://www.w3.org/2000/svg">
<path d="M4.73678 47.3686H25.2632C27.8783 47.366 29.9975 45.2468 30 42.6318V4.73679C29.9975 2.12174 27.8783 0.00252976 25.2632 0H4.73678C2.12174 0.00252976 0.00252976 2.12174 0 4.73679V42.6318C0.00252976 45.2468 2.12174 47.366 4.73678 47.3686ZM25.2632 45.7897H4.73678C2.9927 45.7897 1.57893 44.3759 1.57893 42.6318V41.0529H28.4211V42.6318C28.4211 44.3759 27.0073 45.7897 25.2632 45.7897ZM1.57893 7.89464H28.4211V39.4739H1.57893V7.89464ZM4.73678 1.57893H14.2107V3.15786C14.2107 3.59406 14.5642 3.9475 15 3.9475C15.4362 3.9475 15.7896 3.59406 15.7896 3.15786V1.57893H25.2632C27.0073 1.57893 28.4211 2.9927 28.4211 4.73679V6.31571H1.57893V4.73679C1.57893 2.9927 2.9927 1.57893 4.73678 1.57893Z" fill="#ec1c24"/>
<path d="M17.3685 42.6318H12.6317C12.1955 42.6318 11.8421 42.9852 11.8421 43.421C11.8421 43.8572 12.1955 44.2107 12.6317 44.2107H17.3685C17.8043 44.2107 18.1578 43.8572 18.1578 43.421C18.1578 42.9852 17.8043 42.6318 17.3685 42.6318ZM16.3667 10.8016C16.5666 10.5967 16.6399 10.2997 16.5582 10.025C16.4769 9.75072 16.2532 9.54183 15.9735 9.47967C15.6941 9.41715 15.4029 9.51111 15.2124 9.7247L4.15955 21.5668C3.9597 21.7718 3.88634 22.0688 3.96765 22.3435C4.04932 22.6178 4.27303 22.8267 4.55275 22.8888C4.8321 22.9513 5.12339 22.8574 5.31384 22.6438L16.3667 10.8016ZM20.7316 9.73192L4.94197 27.1001C4.64852 27.4229 4.67237 27.9223 4.99509 28.2158C5.31745 28.5092 5.8169 28.4857 6.11035 28.163L21.9 10.7944C22.0897 10.5859 22.1537 10.2917 22.068 10.0228C21.982 9.75397 21.7594 9.55159 21.4837 9.4916C21.2083 9.43161 20.9213 9.52304 20.7316 9.73192ZM19.1469 17.6331L12.8312 24.7381C12.5413 25.064 12.5703 25.5631 12.8959 25.853C13.2219 26.1428 13.7209 26.1139 14.0108 25.7883L20.3265 18.6829C20.5141 18.4722 20.5751 18.1773 20.4862 17.9095C20.3977 17.6417 20.1729 17.4419 19.8964 17.3848C19.6203 17.3277 19.3345 17.4224 19.1469 17.6331Z" fill="#ec1c24"/>
</svg>
