<?xml version="1.0" standalone="no"?>
<!DOCTYPE svg PUBLIC "-//W3C//DTD SVG 20010904//EN"
 "http://www.w3.org/TR/2001/REC-SVG-20010904/DTD/svg10.dtd">
<svg version="1.0" xmlns="http://www.w3.org/2000/svg"
 width="656.000000pt" height="656.000000pt" viewBox="0 0 656.000000 656.000000"
 preserveAspectRatio="xMidYMid meet">
<metadata>
Created by potrace 1.14, written by Peter Selinger 2001-2017
</metadata>
<g transform="translate(0.000000,656.000000) scale(0.100000,-0.100000)"
fill="#000000" stroke="none">
<path d="M1123 5753 c-3 -7 -3 -20 1 -28 3 -8 1 -15 -5 -15 -6 0 -8 -4 -5 -8
6 -11 9 -105 7 -267 0 -11 0 -60 0 -110 1 -49 1 -94 0 -100 -5 -89 -4 -215 2
-215 5 0 6 -4 3 -8 -5 -9 -7 -68 -6 -182 1 -41 1 -79 0 -85 0 -5 0 -55 0 -110
1 -55 0 -116 0 -135 -1 -19 -2 -39 -2 -45 2 -32 2 -205 0 -293 -2 -56 1 -102
5 -102 5 0 6 -4 3 -8 -5 -9 -7 -68 -6 -182 1 -41 1 -79 0 -85 0 -5 0 -55 0
-110 1 -55 0 -116 0 -135 -1 -19 -2 -39 -2 -45 2 -32 2 -205 0 -293 -2 -56 1
-102 5 -102 5 0 6 -4 3 -8 -5 -9 -7 -68 -6 -182 1 -41 1 -79 0 -85 -1 -5 -1
-64 0 -130 1 -66 1 -127 1 -135 0 -8 0 -80 0 -160 0 -80 0 -152 0 -160 0 -8 0
-80 0 -160 0 -80 0 -152 0 -160 0 -8 0 -80 0 -160 0 -80 0 -152 0 -160 0 -8 0
-55 0 -105 1 -49 1 -94 0 -100 -4 -73 -5 -215 0 -215 3 0 2 -25 -1 -55 -3 -30
-4 -59 -1 -64 4 -5 4 -46 1 -91 -3 -45 -3 -83 -1 -85 2 -2 3 -38 3 -80 l-1
-75 57 -1 c31 -1 61 -1 65 0 7 1 52 1 157 0 76 -1 324 0 355 2 22 0 45 1 50 1
6 0 60 -1 120 -1 61 0 119 0 130 0 11 -1 45 0 75 0 53 1 81 1 223 -1 37 -1 72
2 77 5 6 3 10 2 10 -3 0 -6 14 -7 34 -2 19 4 37 6 40 3 2 -3 37 -4 78 -3 67 1
202 1 238 -1 52 -2 335 17 381 26 10 2 45 6 77 10 33 3 73 9 88 14 16 4 37 7
47 5 9 -1 17 2 17 7 0 6 4 8 8 5 8 -5 269 56 302 71 8 3 18 7 23 8 4 2 8 3 10
5 1 1 10 3 21 5 32 6 144 52 276 112 296 136 610 381 822 639 62 77 192 268
223 329 11 22 22 42 25 45 5 5 33 62 72 150 44 97 123 327 133 389 3 19 8 38
10 42 5 8 30 138 40 204 3 23 7 50 9 60 10 52 23 236 27 370 2 39 -12 315 -16
335 -3 14 -7 54 -10 88 -3 35 -7 67 -9 71 -3 4 -8 30 -11 57 -4 27 -18 94 -32
149 -14 55 -26 107 -28 116 -2 8 -10 32 -19 53 -9 21 -16 45 -16 53 0 8 -7 31
-16 51 -8 21 -21 51 -28 67 -175 410 -417 726 -741 966 -66 49 -125 93 -132
99 -7 5 -14 10 -16 10 -2 0 -42 23 -88 51 -96 57 -321 169 -342 169 -7 0 -17
4 -23 9 -25 24 -349 117 -506 146 -114 21 -122 22 -286 41 -29 3 -109 7 -177
9 -69 2 -129 6 -134 10 -5 3 -12 1 -15 -4 -3 -5 -21 -6 -39 -2 -18 5 -41 6
-52 5 -11 -2 -30 -4 -42 -4 -13 0 -35 0 -50 -1 -27 -1 -35 -1 -98 0 -16 1 -37
1 -45 0 -8 0 -41 1 -72 2 -32 2 -60 0 -63 -3 -3 -3 -24 -2 -45 2 -22 4 -43 4
-45 -1 -3 -4 -18 -4 -33 0 -15 5 -36 5 -47 1 -11 -4 -23 -6 -27 -3 -12 6 -117
8 -123 1 -3 -3 -23 -2 -45 2 -21 4 -44 4 -51 0 -6 -4 -24 -4 -39 0 -15 4 -33
4 -40 0 -7 -5 -23 -5 -34 0 -12 4 -30 4 -41 0 -11 -4 -32 -4 -47 1 -16 4 -30
3 -34 -2 -3 -5 -9 -7 -15 -4 -7 5 -44 6 -131 5 -10 0 -29 0 -43 -1 -14 0 -35
0 -47 0 -13 0 -36 0 -53 0 -16 1 -37 1 -45 0 -8 0 -62 1 -119 3 -76 2 -105 0
-108 -9z m1917 -816 c14 -3 52 -8 85 -12 32 -4 62 -8 66 -10 3 -3 22 -6 41 -9
39 -5 178 -42 218 -59 14 -5 33 -12 42 -13 47 -10 351 -173 378 -203 3 -3 28
-24 55 -45 136 -107 294 -300 381 -464 39 -75 102 -226 109 -264 2 -10 7 -23
10 -28 4 -6 9 -23 11 -38 3 -15 11 -52 19 -82 28 -113 45 -282 47 -455 1 -92
-8 -260 -17 -305 -3 -14 -8 -45 -11 -70 -8 -61 -11 -76 -29 -145 -9 -33 -17
-64 -19 -70 -23 -92 -137 -356 -157 -363 -5 -2 -9 -8 -9 -14 0 -8 -75 -123
-90 -138 -3 -3 -18 -21 -34 -40 -126 -156 -343 -329 -510 -405 -110 -50 -166
-74 -166 -70 0 2 -17 -3 -37 -11 -20 -9 -44 -17 -52 -19 -9 -2 -36 -8 -61 -14
-54 -14 -75 -18 -115 -24 -16 -3 -41 -8 -55 -11 -61 -15 -154 -18 -607 -22
l-483 -4 0 1710 0 1711 483 -4 c265 -3 493 -7 507 -10z"/>
</g>
</svg>
